<svg width="48" height="48" viewBox="0 0 48 48" fill="none" xmlns="http://www.w3.org/2000/svg">
<g clip-path="url(#clip0_307_56)">
<path d="M35.0592 29.2127C35.0592 31.2287 35.6328 32.0327 37.1328 32.0327C40.476 32.0327 42.6048 27.7727 42.6048 20.6879C42.6048 9.85913 34.7136 4.67513 24.8616 4.67513C14.7264 4.67513 5.508 11.4719 5.508 24.3167C5.508 36.5855 13.572 43.2671 25.956 43.2671C30.1608 43.2671 32.9832 42.8063 37.3008 41.3663L38.2272 45.2231C33.9648 46.6079 29.4096 47.0087 25.8984 47.0087C9.6552 47.0087 0.9552 38.0807 0.9552 24.3143C0.9552 10.4327 11.0376 0.986328 24.9192 0.986328C39.3768 0.986328 47.0352 9.62633 47.0352 20.2247C47.0352 29.2103 44.2152 36.0647 35.3448 36.0647C31.3104 36.0647 28.6632 34.4519 28.3176 30.8783C27.2808 34.8527 24.516 36.0647 20.7696 36.0647C15.7584 36.0647 11.5536 32.2031 11.5536 24.4295C11.5536 16.5959 15.2424 11.7575 21.8664 11.7575C25.38 11.7575 27.5688 13.1399 28.5432 15.3287L30.216 12.2759H35.0544V29.2127H35.0592ZM27.9768 21.6095C27.9768 18.4439 25.6128 17.1167 23.6544 17.1167C21.5232 17.1167 19.164 18.8423 19.164 23.9135C19.164 27.9455 20.9496 30.1919 23.6544 30.1919C25.5552 30.1919 27.9768 28.9823 27.9768 25.6415V21.6095Z" fill="#2A8C1A"/>
</g>
<defs>
<clipPath id="clip0_307_56">
<rect width="48" height="48" fill="white"/>
</clipPath>
</defs>
</svg>
