<svg width="45" height="45" viewBox="0 0 45 45" fill="none" xmlns="http://www.w3.org/2000/svg">
<g clip-path="url(#clip0_307_50)">
<path d="M7.5 0C5.51088 0 3.60322 0.790176 2.1967 2.1967C0.790176 3.60322 0 5.51088 0 7.5L0 13.5C0 30.897 14.103 45 31.5 45H37.5C39.4891 45 41.3968 44.2098 42.8033 42.8033C44.2098 41.3968 45 39.4891 45 37.5V33.354C45 32.5179 44.767 31.6983 44.3272 30.9871C43.8873 30.276 43.2581 29.7015 42.51 29.328L35.265 25.704C34.6882 25.4156 34.0561 25.2546 33.4116 25.2318C32.7672 25.2091 32.1253 25.3251 31.5296 25.572C30.9339 25.819 30.3982 26.1911 29.9588 26.6631C29.5194 27.1351 29.1866 27.6961 28.983 28.308L28.089 30.987C27.9245 31.4786 27.5863 31.8934 27.1378 32.1535C26.6894 32.4136 26.1614 32.5013 25.653 32.4C22.4323 31.7558 19.4742 30.1728 17.1514 27.8506C14.8286 25.5283 13.245 22.5706 12.6 19.35C12.4987 18.8416 12.5864 18.3136 12.8465 17.8652C13.1066 17.4167 13.5214 17.0785 14.013 16.914L17.34 15.804C18.4152 15.445 19.3152 14.6934 19.8603 13.6995C20.4054 12.7056 20.5552 11.5426 20.28 10.443L18.522 3.411C18.2792 2.43755 17.7181 1.57316 16.9278 0.955145C16.1374 0.337132 15.1633 0.000946108 14.16 0L7.5 0Z" fill="#2A8C1A"/>
</g>
<defs>
<clipPath id="clip0_307_50">
<rect width="45" height="45" fill="white"/>
</clipPath>
</defs>
</svg>
